<?xml version="1.0" encoding="UTF-8"?>
<svg id="Layer_1" data-name="Layer 1" xmlns="http://www.w3.org/2000/svg" viewBox="0 0 1080 1080">
  <path d="m426.42,391.17q3.37,4.91.03,9.11c-.5.63-.98,1.28-1.47,1.92-2.23,2.88-2.41,5.75-.32,8.88,3.28,4.91,6.01,10.1,10.08,14.57,6.35,6.96,9.65,15.91,14.08,24.11,1.23,2.27,2.39,4.54,3.96,6.62,2.78,3.69,3.97,8.06,4.75,12.54.31,1.76.79,3.4,1.59,5.02,4.91,9.96,9.94,19.86,13.15,30.56,1.19,3.98,4.01,7.21,5.45,11.21,1.67,4.66,4.18,9.03,5.71,13.82.71,2.22,2.05,2.33,3.4.5,1.26-1.71,2.02-3.7,2.27-5.8.49-3.99.81-8.01,1.21-12.01,1.35-13.49.58-27.05,1.75-40.53.24-2.8,2.12-5.08,1.98-7.89-.17-3.39,1.7-6.96-1-10.15-.48-.56-.12-1.63.36-2.29,2.09-2.89,1.54-5.76.09-8.66-.92-1.83-.75-3.4,1.04-4.64.7-.48,1.39-1.36.99-2.02-1.62-2.67.82-5.58-.84-8.38-1.03-1.74.46-4.06.42-6.16-.18-10.69,1.84-21.17,3.22-31.7.91-6.92,3.98-13.25,6.65-19.63.94-2.25,2.04-4.35,2-6.85-.05-2.92,1.12-5.29,3.26-7.26.82-.75,1.68-1.62,2.11-2.61,1.44-3.34,4.51-4.68,7.18-6.73,5.02-3.85,12.89-1.52,16.24,4.23,1.93,3.31,2.93,7.17,6.06,9.75.34.28.52.83.61,1.29,1.94,9.95,3.82,19.93,1.44,30.07-.93,3.97-1.35,7.94-.87,11.99.24,1.99-.16,3.73-1.03,5.57-1.51,3.18-2.98,6.44-2.48,10.16.08.61.04,1.35-.24,1.87-3.02,5.62-3.72,11.96-5.63,17.92-.98,3.07-1.71,6.13-.98,9.47.54,2.46-.33,4.85-2.22,6.61-1.53,1.43-1.88,3.11-2.21,5.11-.96,5.82-1.75,11.71-5.32,16.78-1.96,2.79-2.86,6.17-3.21,9.53-.26,2.52-1.02,4.61-2.56,6.61-2.17,2.82-2.63,6.17-2.35,9.64.05.64.18,1.33.88,1.59.93.35,1.6-.2,1.98-.92,4.94-9.29,12.2-16.93,18.03-25.59.98-1.46,2.24-2.74,3.39-4.08,2.31-2.7,4.39-5.45,5.54-8.96,1.05-3.22,3.16-5.98,5.76-8.22,2.81-2.42,4.54-5.53,5.4-8.98.73-2.89,2.01-5.37,3.47-7.89,1.36-2.36,2.37-4.93,3.39-7.47,1.42-3.54,3.43-6.57,6.88-8.43,1.64-.88,2.33-2.36,3.27-3.92,3.57-5.96,6-12.84,12.53-16.6.97-.56,1.79-1.31,2.99-1.44,3.2-.34,6.39-.8,9.59-1.13,2.75-.28,4.1.61,4.22,2.63.12,1.81-1.47,3.51-3.62,3.85-1.32.21-2.56-.17-3.79-.57-1.42-.46-2.83-.66-4.21.13-.96.55-1.62,1.33-.69,2.29,2.35,2.46,1.38,4.38.11,7.21-1.72,3.81-4.24,7.34-5.53,11.07-1.95,5.64-5,10.82-6.54,16.52-1.89,6.97-5.41,13.11-8.91,19.22-2.8,4.88-5.42,9.93-8.7,14.48-6.2,8.61-11.19,17.97-17.17,26.74-4.87,7.14-10.19,13.99-14.85,21.31-3.49,5.48-7.64,10.78-12.53,15.29-3.83,3.53-5.57,7.7-5.96,13.15-.42,5.92.17,11.84-.73,17.77-.76,5.06.57,9.75,4.62,13.6,3.49,3.32,6.32,7.27,8.37,11.74,2.09,4.55,1,8.82-.84,13.04-.77,1.76-2.39,2.54-4.3,2.67-2.42.17-4.68.95-6.87,1.73,2.89,9.47,7.59,17.89,13.19,25.86,1.22,1.73,2.71,3.19,4.43,4.42,1.05.75,2.33,1.29,3.14,2.24,4.58,5.38,10.91,7.02,17.38,8.6,3.46.84,6.42.3,9.05-1.88,2.87-2.39,5.79-4.62,9.39-5.79,1.68-.55,2.43-1.97,3.16-3.45,1.31-2.66,3.49-4.38,5.88-6.17,6.49-4.88,11.45-11.2,15.3-18.37.46-.85.65-1.88,1.23-2.61,6.63-8.21,10.08-18.31,16.02-26.92,1.2-1.74,2.1-3.66,2.6-5.7,1.73-7.04,6.47-11.8,12.21-15.56,7.63-5,17.2.24,18.72,9.18,1.05,6.16.76,12.42,2.11,18.94,3.38-1.46,5.49-4.15,7.84-6.3,6.37-5.83,14.21-8.7,21.99-11.76.93-.36,1.91-.47,2.84-.13,1.99.74,3.65-.24,5.53-.65,5.85-1.28,11.68-1.42,17.48,1.02,5.48,2.3,9.07,6.43,12.54,10.92,4.38,5.66,4.48,5.62,9.98,1.39,5.09-3.91,11.3-5.42,17-8.01,1.37-.62,2.88-.28,4.2.47,3.04,1.75,6.23,1.63,9.34.48,3.14-1.16,5.85-.87,8.66,1.02,2.29,1.54,5.13,1.89,7.8,2.44,5.32,1.09,10.15,2.83,13.72,7.36,1.56,1.98,3.83,3.44,5.93,4.94,2.13,1.52,4.04,3.22,5.52,5.36,2.12,3.07,5.44,4.57,8.5,6.2,4.01,2.14,11.16-.81,12.83-5.11,1.25-3.22,3.46-4.44,6.64-4.53,1.64-.04,2.28.47,1.84,2.34-1.56,6.58-4.43,12.67-6.84,18.93-1.34,3.47-3.82,6.45-6.67,8.74-3.75,3.02-7.8,4.09-13,2.19-9.12-3.32-16.49-8.54-21.97-16.43-6-8.62-14.73-11.49-24.61-12.14-2.41-.16-4.82-.41-7.23-.51-3.47-.14-6.57.82-9.52,2.82-6.93,4.7-11.02,11.64-15.07,18.59-3.31,5.69-5.11,12.11-8.07,17.97-1.89,3.75-5.64,5.75-9.54,6.63-3.22.72-7.23-3.33-7.98-7.11-1.12-5.7-.15-11.16,1.56-16.61,1.97-6.31,3.74-12.67,3.46-19.4-.09-2.27-.53-4.45-1.01-6.67-1.54-7.07-6.36-9.06-13.67-7.84-3.91.65-7.75,2.08-11.6,3.2-4.9,1.41-8.76,4.82-11.96,8.69-3.99,4.83-8.13,9.58-11.38,15-.99,1.65-2.07,3.35-3.46,4.64-4.29,3.99-5.96,9.48-8.56,14.42-1.29,2.45-2.51,4.85-4.64,6.68-2.8,2.41-7.98,3.25-10.72-.67-.55-.79-1.22-1.52-1.97-2.12-3.35-2.67-4.05-5.97-2.61-9.92.44-1.2.75-2.52.76-3.78.02-6.93,2.77-13.15,4.85-19.55,1.24-3.83,2.41-7.68,3.53-11.54.22-.74.22-1.62.05-2.38-.75-3.39-.48-6.73.36-10.05.04-.16.07-.32.06-.48-.02-1.86.95-4.31-1.23-5.23-2.03-.86-2.82,1.58-4.02,2.77-4.04,3.96-5.91,8.97-7.77,14.22-2.25,6.37-6.53,11.79-10.21,17.47-3.68,5.68-7.68,11.09-12.08,16.22-1.17,1.36-1.9,2.57-.26,4.12.76.72,1,1.86.06,2.56-3.25,2.42-4.16,6.89-7.99,8.85-1.74.89-2.71,2.83-3.46,4.56-2.34,5.37-7.49,7.76-11.58,11.27-.93.8-2.37,1.06-2.92,2.36-1.8,4.19-5.09,5.91-9.4,7.35-5.98,1.99-12,1.8-17.64.75-6.17-1.15-12.52-3.15-17.52-7.61-.95-.85-1.79-1.9-3.2-2.02-3.42-.27-5.32-2.69-7.63-5.35,1.96-.65,2.91,1.58,4.98.83-3.01-2.24-5.47-4.66-7.44-7.52-.46-.67-1.1-1.34-1.97-1.14-.91.21-1.05,1.12-1.11,1.94-.35,4.65-1.07,9.32-.94,13.96.29,10.5-.64,20.92-1.57,31.34-.03.32-.12.64-.14.96-.03.79-.22,1.68.75,2.07.67.27,1.23-.11,1.7-.58.45-.46.85-.97,1.33-1.4.64-.56,1.38-.86,2.19-.31.76.51.89,1.29.81,2.13-.14,1.48-.66,2.85-1.47,4.06-1.23,1.85-1.64,3.75-1.19,5.96.86,4.2-.15,8-2.95,11.27-1.08,1.26-1.65,2.75-2.17,4.28-.37,1.1-.89,2.18-1.91,2.71-3.52,1.81-6.98.11-10.33-.62-2.4-.53-3.38-2.93-3.53-5.29-.16-2.48-1.04-4.53-2.22-6.73-1.9-3.53-1.14-7.58-.76-11.4.86-8.79,1.99-17.57.91-26.42-.42-3.43.95-6.69.93-10.08-.02-4.67.08-9.35.04-14.02-.05-5.66.61-11.25,1.47-16.83.49-3.17.39-6.43.8-9.61.21-1.59-1.46-1.25-1.57-1.76-1.34-5.91-5.24-8.96-10.83-10.57-1.44-.41-2.62-1.82-3.83-2.88-.56-.49-1.29-1.27-.35-2,1-.77.44-1.28-.05-1.94-3.56-4.88-5.27-5.15-10.13-1.48-1.03.78-2.24,1.44-2.99,2.44-7.35,9.86-17.86,16.7-25.25,26.49-1.83,2.43-4.6,3.49-6.61,5.56-5.79,6-12.77,10.58-19,16.06-3.93,3.46-9.13,4.72-13.91,6.58-4.37,1.71-8.78,3.14-11.73,7.2-.71.97-2.09,1.46-3.16,2.16-.65.42-1.77.57-1.67,1.51.37,3.52-1.69,2.19-3.19,1.6-3.04-1.2-6.4-.57-8.22,2.2-1.18,1.8-2.63,2.4-4.46,2.04-2.66-.53-5.14.2-7.64.73-6.78,1.42-13.58,2.34-20.52,2.75-4.9.29-9.58.28-14.26-1.1-.15-.05-.32-.07-.47-.09-14.72-1.57-19.57-5.4-29.87-11.7-5.99-3.67-11.8-8.19-15.31-14.86-1.16-2.22-3.35-3.88-4.88-5.93-2.76-3.73-3.07-8.43-4.77-12.6-1.34-3.27-2.06-6.73-2.19-10.34-.11-3.04-.78-6.06-1.82-8.97-1.39-3.89-1.78-7.84-.54-11.86.19-.61.39-1.28.34-1.9-.68-7.31,2.91-13.31,5.69-19.66,2.8-6.41,7.11-11.88,10.32-17.92,3.99-7.52,9.83-13,15.73-18.65,1.87-1.79,3.71-3.57,6.32-4.29.6-.16,1.19-.54,1.65-.96,6.99-6.38,15.53-10.17,23.8-14.47,3.68-1.91,7.21-4.05,11.02-5.8,3.13-1.44,4.94-5.14,6.47-8.18,2.23-4.43,4.83-8.73,6.32-13.55,1.1-3.54,2.47-6.98,2.73-10.74.06-.95.27-1.95.68-2.8,3.12-6.53,3.91-13.9,7.31-20.34.37-.7.54-1.51.7-2.3,1.15-5.65,2.16-11.24,4.69-16.6,2.38-5.03,3.92-10.48,4.84-16.11.94-5.72,3.97-10.84,5.79-16.34.51-1.52,1.47-2.99,1.58-4.53.48-6.52,3.61-12.33,4.74-18.69.54-3.03,2.05-6.11,3.41-8.81,1.62-3.22,4.96-5.88,8.96-6.78,3.26-.73,5.58,1.1,7.67,3.19,2.05,2.05,4.05,4.16,5.9,6.38,1.32,1.58,2.61,1.93,4.02.42,1.68-1.8,3.46-2.07,5.65-1.04.68.32,1.57.22,2.37.23,4.33.06,4.94-.98,2.92-4.76-.86-1.6-2.99-2.81-1.78-5.11,1.18-2.24,3.09-3.72,5.41-4.58,1.35-.5,2.84-.59,4.21-1.04,3.15-1.04,3.67-2.15,2.64-5.29-.88-2.68-.47-3.72,1.97-5.04,4.75-2.56,10.54-.38,12.26,4.7,1.34,3.96,2.76,7.87,1.88,12.24-1.02,5.02-3.4,8.61-8.73,9.57-1.17.21-2.19.71-2.84,1.67-1.8,2.7-3.89,3.81-6.89,1.31Zm-99.03,274.19c7.74-.03,15.51-1.62,23.37-2.24,4.96-.39,9.23-3.22,13.75-5.3,6.25-2.87,12.01-6.84,18.68-8.86,2.27-.69,4.42-2,6.4-3.36,2.24-1.53,2.46-3.33.57-5.24-3.44-3.48-3.94-7.71-3.1-12.08.47-2.48.53-4.74-.26-7.08-.89-2.64-.27-4.89,1.21-7.26,3.24-5.18,6.59-10.37,9.07-15.92,2.26-5.08,6.28-8.5,9.7-12.49,1.36-1.58,3.32-2.83,5.31-3.23,6.17-1.23,11.32-5.01,17.62-6.17,6.37-1.18,12.38-1.48,18.46.61,2.7.93,5.41,1.04,8.07.25,3.13-.93,4.03-3.77,2.17-6.5-.53-.79-1.2-1.58-1.99-2.09-4.69-3.05-9.66-5.81-14.67-8.01-4.18-1.83-8.45-3.82-12.84-5.31-3.35-1.13-6.75-2.15-9.98-3.57-2.44-1.07-4.4-3.41-7.52-2.37-.74.25-1-.53-1.42-1.01-1.36-1.55-3.22-2.03-5.2-2.18-1.45-.11-2.88-.28-4.24-.85-7.78-3.22-15.84-5.27-24.23-6.09-2.87-.28-5.74-1.36-8.62-.7-3.51.81-7.02.68-10.57.69-6.03,0-5.92.47-8.41,5.85-3.71,7.99-6.31,16.57-11.9,23.61-.81,1.02-1.71,2.16-1.14,3.5.87,2.06-.2,3.29-1.45,4.66-1.51,1.67-3.15,3.34-4.16,5.31-2.4,4.7-6.54,7.93-9.61,12.04-1.49,1.99-3.48,3.42-6.27,2.4-7.67-2.83-11-13.93-5.48-19.45,1.61-1.61,2.56-3.7,3.85-5.51,2.43-3.42,2.76-7.52,4.25-11.22.51-1.28,1.79-2.72.42-3.95-1.26-1.13-2.75-.07-4.06.47-.73.3-1.31.97-2.05,1.26-3.84,1.54-5.86,5.72-9.64,7.07-7.96,2.83-8.86,11.2-13.6,16.51-.29.32-.29.91-.39,1.38-.37,1.94-1.31,3.6-2.3,5.28-4.38,7.43-7.61,15.28-7.99,24.03-.24,5.49-.18,11.25,2.21,16.08,2.5,5.06,4.17,10.48,7,15.33,2.83,4.84,5.84,9.69,11.92,11.27,1.36.35,2.69,1.12,3.83,1.98,7.43,5.58,15.66,8.67,25.21,8.46Zm143.62-114.9c.07-2.4-1.52-4.57-2.95-6.65-2.13-3.08-4.08-6.16-4.8-9.9-.12-.62-.41-1.23-.76-1.76-3.59-5.41-5.4-11.62-8.07-17.45-1.81-3.96-2.2-8.49-4.31-12.19-2.28-4-5.06-7.75-7.29-11.83-1.78-3.26-3.51-6.52-3.85-10.29-.13-1.48-.45-2.89-1.38-4.06-2.34-2.95-3.54-6.48-5.06-9.85-.79-1.76-1.25-3.91-2.56-5.15-3.6-3.43-5.73-7.77-7.94-12-3.13-5.98-7.18-11.43-9.92-17.63-1.39-3.15-2.89-3.43-5.38-1.04-.94.9-1.83,1.87-1.99,3.23-.29,2.38-1.55,4.18-3.16,5.83-.91.93-1.69,2-1.87,3.32-.31,2.21-1.31,3.92-3.19,5.16-1.4.93-1.96,2.48-2.75,3.89-3.37,6-6,12.43-10.73,17.66-2.36,2.61-4.03,5.82-5.45,9.08-.52,1.19-1.19,2.25-1.96,3.3-2.29,3.13-4.05,6.64-4.82,10.36-1.17,5.58-2.48,10.96-6.38,15.37-.73.83-1.13,1.95-1.67,2.93-2.58,4.68-1.96,6.05,3.43,7.1,3,.58,6.07.82,9.06,1.42,8.75,1.77,18.06,1.33,25.98,6.47.38.25.92.31,1.39.36,7.95.8,15.31,3.77,22.68,6.51,5.1,1.9,10.01,4.39,14.78,7.02,2,1.11,3.91,2.25,6.15,2.56,4.8.67,8.7,3.11,12.55,5.82,2.63,1.85,5.37,3.57,8.21,5.07,2.74,1.46,4.02.61,4.01-2.67Zm58.77-169.28c-.03-2.38.08-4.02-.72-5.5-1.01-1.87-2.86-2.07-3.63-.15-1.48,3.73-3.82,7.12-4.63,11.11-1.8,8.83-.72,17.98-3.04,26.78-.48,1.82-.13,3.85-.17,5.78-.05,2.26-.24,4.49-1.02,6.65-.37,1.04-.71,2.24-.56,3.29.78,5.3.74,10.56-.15,15.86-.27,1.63-.56,4.2,1.39,4.67,2.17.52,2.71-2.16,3.03-3.65,1.3-6.01,4.5-11.35,5.86-17.31.21-.93.51-1.91.43-2.83-.39-4.47.7-8.95-.32-13.43-.37-1.65-.19-3.61.31-5.26,2.66-8.75,1.75-17.91,3.22-26.01Zm-95.57,214.11c-.81.09-1.77.22-2.73.31-6.05.56-11.3,2.96-16.52,6.08-3.42,2.05-5.22,4.76-6.16,8.08-.92,3.25-2.05,6.39-3.21,9.54-.53,1.45-1.65,3.28-.14,4.48,1.84,1.47,3.31-.49,4.54-1.5,6.57-5.4,13.06-10.9,19.5-16.45,2.31-1.99,4.44-4.18,6.58-6.36.86-.87,2.09-1.81,1.33-3.28-.63-1.22-1.95-.82-3.19-.9Zm-45.45-174.31c1.9-.98,2.48-2.75,3.5-4.07,1.89-2.45,2.48-5.53,3.56-8.36.59-1.55-.06-2.98-1.79-3.31-1.48-.28-1.79,1.03-2.01,2.15-.53,2.7-1.56,5.18-2.94,7.57-1.03,1.79-1.55,3.76-.32,6.02Z"/>
  <path d="m624.7,471.65c1.46-6.16,1.17-12.6,1.84-18.96.16-1.48.93-2.81,2.5-3.25,1.45-.41,2.41.63,3.33,1.52,1.78,1.74,2.83,3.83,3.29,6.3.98,5.27,1.33,5.86,6.38,5.88,4.22.02,6.9,2.12,9.36,5,2.99,3.5-.04,5.94-1.61,8.54-2.41,4-3.03,4.5-5.84,3.39-2.64-1.04-4.54-.7-6.54,1.19-1.79,1.7-4.33,2.11-6.56,2.91-3.35,1.2-4.66-1.98-6.63-3.72-1.78-1.58-1.2-3.27-.12-4.69,1.01-1.32,1.33-2.5.59-4.12Z"/>
  <path d="m367.4,735.18c-.46-.05-.95-.03-1.4-.17-1.33-.39-3.36-.63-3.08-2.29.29-1.72,2.1-.47,3.23-.52.47-.02.95.08,1.42.17,1.03.21,2.62.04,2.54,1.5-.08,1.43-1.64,1.14-2.71,1.3Z"/>
  <path d="m536.19,675.98c3.68-.71,6.23-1.09,9.78.14-3.59,1.43-6.13,2.94-9.78-.14Z"/>
  <path d="m606.94,671.47c-1.37-.3-3.11.36-3.21-1.48-.07-1.3,1.33-1.7,2.43-1.78,1.34-.1,2.77.44,2.96,1.81.26,1.8-1.58.92-2.18,1.46Z"/>
</svg>